<?xml version="1.0" encoding="UTF-8"?>
<svg id="Layer_2" xmlns="http://www.w3.org/2000/svg" version="1.1" viewBox="0 0 650.2 400">
  <!-- Generator: Adobe Illustrator 29.3.1, SVG Export Plug-In . SVG Version: 2.1.0 Build 151)  -->
  <defs>
    <style>
      .st0 {
        fill: #818181;
      }
    </style>
  </defs>
  <g id="Layer_1-2">
    <g id="hide">
      <path class="st0" d="M25.1,225c-13.8,0-25-11.1-25.1-24.9,0-4.4,1.1-8.8,3.3-12.6C7.8,180,113.1,0,325.1,0s317.2,180,321.7,187.5c6.9,12,2.8,27.4-9.2,34.2s-27.3,2.8-34.2-9.2c-.8-1.8-95.8-162.5-278.2-162.5S47.8,210.8,46.8,212.5c-4.5,7.8-12.8,12.5-21.7,12.5Z"/>
      <path class="st0" d="M325.1,400C113.1,400,7.8,220,3.3,212.5c-6.9-12-2.8-27.4,9.3-34.2,12-6.9,27.4-2.8,34.2,9.2h0c.8,1.8,95.8,162.5,278.3,162.5s277.2-160.8,278.2-162.5c6.9-12,22.2-16.1,34.2-9.2s16.2,22.2,9.2,34.2h0c-4.5,7.5-109.8,187.5-321.8,187.5h0Z"/>
      <path class="st0" d="M400.1,225h-150c-13.8,0-25-11.2-25-25s11.2-25,25-25h150c13.8,0,25,11.2,25,25s-11.2,25-25,25Z"/>
    </g>
  </g>
</svg>