<?xml version="1.0" encoding="UTF-8"?><svg id="Layer_2" xmlns="http://www.w3.org/2000/svg" width="381.18" height="381.13" viewBox="0 0 381.18 381.13"><defs><style>.cls-1{fill:#818181;}.cls-1,.cls-2{stroke-width:0px;}.cls-2{fill:gray;}</style></defs><g id="Layer_2-2"><path class="cls-1" d="M177,251.26c0-14.49,0-28.98,0-43.47,0-64.14,0-128.29,0-192.43,0-9.74,5.63-15.73,14.3-15.34,6.73.3,12.26,5.68,12.72,12.45.11,1.66.04,3.33.04,5,0,76.14,0,152.28,0,228.42v6.85c2.32-2.24,3.91-3.73,5.46-5.28,21.79-21.79,43.56-43.61,65.37-65.39,6.03-6.02,14.23-6.78,19.71-1.94,6.33,5.59,6.49,14.24.09,20.72-12.99,13.16-26.11,26.19-39.19,39.26-17.55,17.55-35.1,35.1-52.66,52.64-9.02,9.02-15.64,8.97-24.7-.1-30.38-30.39-60.79-60.77-91.16-91.17-6.06-6.07-6.98-13.61-2.51-19.25,5.36-6.75,14.48-7.23,21.01-.76,18.45,18.29,36.8,36.69,55.14,55.09,5.12,5.14,10.08,10.44,15.11,15.67.42-.32.84-.64,1.26-.96Z"/><path class="cls-2" d="M353.93,353.59c0-18.31-.05-35.96.02-53.61.03-7.63,4.7-13.13,11.59-13.97,8.29-1.02,15.37,4.71,15.46,13.14.19,18.66.29,37.33-.04,55.99-.25,14.11-12.25,25.52-26.7,25.89-7.99.2-16,.05-24,.05-99.82,0-199.64,0-299.46,0-20.1,0-30.8-10.74-30.81-30.89,0-16.33-.02-32.66,0-48.99.01-9.4,5.15-15.2,13.42-15.27,8.44-.07,13.68,5.83,13.69,15.49.02,15.5,0,31,0,46.49,0,1.79,0,3.58,0,5.68h326.79Z"/></g></svg>