<?xml version="1.0" encoding="UTF-8"?>
<svg id="Layer_2" data-name="Layer 2" xmlns="http://www.w3.org/2000/svg" viewBox="0 0 650.19 400">
  <defs>
    <style>
      .cls-1 {
        fill: #818181;
      }
    </style>
  </defs>
  <g id="Layer_2-2" data-name="Layer 2">
    <g id="Layer_1-2" data-name="Layer 1-2">
      <g id="hide">
        <path class="cls-1" d="M25.1,225C11.29,225.05.06,213.91,0,200.1c-.02-4.42,1.14-8.77,3.35-12.6C7.85,180,113.1,0,325.1,0s317.25,180,321.75,187.5c6.9,12.01,2.76,27.35-9.25,34.25s-27.35,2.76-34.25-9.25c-.75-1.75-95.75-162.5-278.25-162.5S47.85,210.75,46.85,212.5c-4.48,7.77-12.78,12.54-21.75,12.5Z"/>
        <path class="cls-1" d="M325.1,400C113.1,400,7.85,220,3.35,212.5c-6.9-12.01-2.76-27.35,9.25-34.25,12.01-6.9,27.35-2.76,34.25,9.25h0c.75,1.75,95.75,162.5,278.25,162.5s277.25-160.75,278.25-162.5c6.9-12.01,22.24-16.15,34.25-9.25s16.15,22.24,9.25,34.25h0c-4.5,7.5-109.75,187.5-321.75,187.5h0Z"/>
      </g>
    </g>
    <circle class="cls-1" cx="325.1" cy="200" r="73"/>
  </g>
</svg>