<?xml version="1.0" encoding="UTF-8"?>
<svg id="Layer_2" data-name="Layer 2" xmlns="http://www.w3.org/2000/svg" xmlns:xlink="http://www.w3.org/1999/xlink" viewBox="0 0 397.06 98.02">
  <defs>
    <style>
      .cls-1 {
        fill: #616efe;
      }

      .cls-2 {
        fill: #fff;
        font-family: MontserratRoman-ExtraLight, Montserrat;
        font-size: 38px;
        font-variation-settings: 'wght' 200;
        font-weight: 200;
        letter-spacing: .26em;
      }

      .cls-3 {
        fill: #2abafd;
      }

      .cls-4 {
        fill: #34a0fd;
      }

      .cls-5 {
        fill: #31a8fe;
      }

      .cls-6 {
        fill: #5a72fe;
      }

      .cls-7 {
        fill: #4389fe;
      }

      .cls-8 {
        fill: #25b6f8;
      }

      .cls-9 {
        fill: #2cadfc;
      }

      .cls-10 {
        fill: #4b80fe;
      }

      .cls-11 {
        fill: #5378fe;
      }

      .cls-12 {
        fill: #1fc4f2;
      }

      .cls-13 {
        fill: #3d93fe;
      }

      .cls-14 {
        fill: #22c0f8;
      }

      .cls-15 {
        fill: #389efe;
      }

      .cls-16 {
        fill: url(#linear-gradient);
      }
    </style>
    <linearGradient id="linear-gradient" x1="98.7" y1="21.81" x2="380.4" y2="21.81" gradientUnits="userSpaceOnUse">
      <stop offset="0" stop-color="#7a5fff"/>
      <stop offset="1" stop-color="#01c8ff"/>
    </linearGradient>
  </defs>
  <g id="Layer_1-2" data-name="Layer 1">
    <path class="cls-16" d="M116.46,43.05c-5.52,0-9.86-1.58-13.02-4.74-3.16-3.16-4.74-7.78-4.74-13.86V.57h6v23.64c0,4.68,1.03,8.1,3.09,10.26,2.06,2.16,4.97,3.24,8.73,3.24s6.73-1.08,8.79-3.24c2.06-2.16,3.09-5.58,3.09-10.26V.57h5.82v23.88c0,6.08-1.57,10.7-4.71,13.86-3.14,3.16-7.49,4.74-13.05,4.74ZM162.72,42.57V.57h16.38c3.68,0,6.82.58,9.42,1.74,2.6,1.16,4.6,2.84,6,5.04,1.4,2.2,2.1,4.82,2.1,7.86s-.7,5.65-2.1,7.83c-1.4,2.18-3.4,3.85-6,5.01-2.6,1.16-5.74,1.74-9.42,1.74h-13.08l2.7-2.76v15.54h-6ZM168.72,27.63l-2.7-2.94h12.9c3.84,0,6.75-.83,8.73-2.49,1.98-1.66,2.97-3.99,2.97-6.99s-.99-5.32-2.97-6.96c-1.98-1.64-4.89-2.46-8.73-2.46h-12.9l2.7-3v24.84ZM190.8,42.57l-10.68-15.24h6.42l10.8,15.24h-6.54ZM222.54,42.57V.57h18.84c4.84,0,8.56.97,11.16,2.91,2.6,1.94,3.9,4.59,3.9,7.95,0,2.28-.51,4.2-1.53,5.76s-2.39,2.76-4.11,3.6c-1.72.84-3.58,1.26-5.58,1.26l1.08-1.8c2.4,0,4.52.42,6.36,1.26,1.84.84,3.3,2.07,4.38,3.69,1.08,1.62,1.62,3.63,1.62,6.03,0,3.6-1.35,6.39-4.05,8.37-2.7,1.98-6.71,2.97-12.03,2.97h-20.04ZM228.54,37.71h13.8c3.32,0,5.86-.56,7.62-1.68,1.76-1.12,2.64-2.88,2.64-5.28s-.88-4.22-2.64-5.34c-1.76-1.12-4.3-1.68-7.62-1.68h-14.34v-4.86h12.84c3.04,0,5.4-.56,7.08-1.68,1.68-1.12,2.52-2.8,2.52-5.04s-.84-3.92-2.52-5.04c-1.68-1.12-4.04-1.68-7.08-1.68h-12.3v32.28ZM277.8,42.57L296.82.57h5.94l19.08,42h-6.3l-16.98-38.64h2.4l-16.98,38.64h-6.18ZM285.9,32.07l1.62-4.8h23.64l1.74,4.8h-27ZM344.28,42.57V.57h4.92l27.78,34.5h-2.58V.57h6v42h-4.92l-27.78-34.5h2.58v34.5h-6Z"/>
    <text class="cls-2" transform="translate(94.15 86.85)"><tspan x="0" y="0">GEOMETRY</tspan></text>
    <g>
      <path class="cls-6" d="M32.65,3.9c.4-.04.2.11.14.32-.08.28-.2.5-.25.82-.05.29.04.64-.04.91-.1.34-.62.38-.67.45-.08.13.03.58-.04.84-.06.2-.41.39-.43.63-.01.18.3.33.2.67-.07.22-.34.25-.46.41-.19.24-1.24,1.54-1.27,1.64-.13.43-.15,1.57-.4,2.01-.05.08-.51.25-.62.5s-.03.55-.11.83c-.1.32-.55.51-.61.93-.04.29.16.4.16.63,0,1.1-.66,1.08-1.01,1.69-.34.57-.27,1.41-.69,2.01-.18.26-.39.23-.57.62-.44,1,.46.95.22,1.5-.12.26-.44.14-.6.29-.26.24.1,1.95-.27,2.39-.04.36.26.88.24,1.19-.02.25-.32.32-.35.58s.25.59.06.88c-.13.21-.7.19-.77.65-.07.42.59-.05.71.06.31.56-.19.89-.21,1.26-.02.44.25.16,0,.96s-.26.35-.39.57c-.19.33-.03.95-.11,1.26-.03.13-.31.12-.35.27s.13.41.09.67c-.04.23-.33.48-.33.74,0,.21.21.38.23.59.03.41-.47,1.07.42,1.01.33-.02.56-.36,1-.13-2.15,2.21-4.4,3.67-4.6,6.95h-.24s0,1.1,0,1.1l.24.07c0,.12,0,.24,0,.35,0,.05-.35.28.12.24.02.07-.02.2,0,.24-.24.05-.84.06-.93.31-.18.48.29.42.34.58.07.22-.21.38-.22.57,0,.17.15.39.12.58-.02.12-.31.11-.36.27-.06.19.1.39.08.56-.02.23-.51.76-.44,1.13l-.4-.12c-.11.45-.57.3-.64.37-.04.03-.08.74-.26.98s-.88.42-1.03.86l-.02.22.22.07.02.22c-.68.05-.49.74-.61.93-.05.08-.62.1-.75.37-.11.22-.01.44-.05.63-.03.13-.28.11-.34.28-.06.19.03.46-.07.64l-.13.1c-1.66-.65-.87,1.95-2.52,1.56l-.36,1.12-.82-.06c-.05.3-.19.59-.23.89-.06.41.2,1.46-.48,1.34-1.73-1.73-3.47-3.44-5.19-5.19.15-.26.25-.57.42-.82.18-.26.3-.43.47-.7.07-.11.26-.12.38-.33.37-.63.05-1.32.27-1.61.18-.23.42-.14.58-.25.06-.04.64-.6.66-.64.16-.33-.19-2.28.68-1.98.22.08.28.38.56.33l.24-2.71c1.2.16.98-1.43,1.77-1.95v-.17s-.46-.31-.46-.31l.53-1.09.52.1c-.22-.55.04-.76.11-1.13.15-.89.4-1.78.26-2.68l.58-.37-.08-.3h-.39c-.22-.83.89-.56,1.15-.85.11-.12.38-1.27.38-1.46,0-.36-.4-.53-.17-.98.11-.22,1.06-.58,1.29-1.18.14-.34,0-.67.09-.97.07-.25.61-.51.5-1.03l.72-.22c-.08-.45.25-.94.29-1.26.03-.33-.21-.66-.1-1.03.08-.27.47-.32.62-.56.2-.31.3-1.04.56-1.44.12-.18.3-.22.38-.33.21-.3.36-1.09.42-1.47.05-.31-.06-.67.08-.97.1-.21.36-.12.5-.33.03-.04.45-.91.46-.96.09-.31-.14-.6-.09-.79.09-.35.52.07.76-.18.34-.36,0-.73.1-1.07.08-.27.39-.4.48-.59s.04-.4.13-.58c.11-.23.55-.42.62-.68s-.02-.57.08-.87c.13-.43.89-.66.53-1.22-.14-.21-.46-.13-.34-.54.98-.28,1.61-.91,1.53-2.01.16-.16.39-.39.59-.59l.57-.02.14-.69c2.45-2.42,4.82-4.92,7.31-7.31Z"/>
      <path class="cls-1" d="M24.04,12.51c.09,1.1-.55,1.73-1.53,2.01-.12.4.2.33.34.54.36.56-.39.79-.53,1.22-.09.3,0,.6-.08.87s-.51.45-.62.68c-.09.18-.04.4-.13.58s-.4.33-.48.59c-.1.33.24.71-.1,1.07-.24.25-.67-.17-.76.18-.05.18.19.48.09.79-.02.05-.43.92-.46.96-.14.2-.41.11-.5.33-.14.3-.03.66-.08.97-.06.38-.21,1.17-.42,1.47-.07.11-.26.15-.38.33-.26.4-.36,1.13-.56,1.44-.15.24-.54.29-.62.56-.11.37.13.69.1,1.03s-.36.81-.29,1.26l-.72.22c.11.52-.43.78-.5,1.03-.09.31.05.63-.09.97-.24.6-1.18.96-1.29,1.18-.23.46.17.63.17.98,0,.19-.27,1.35-.38,1.46-.26.29-1.38.02-1.15.85h.39s.08.3.08.3l-.58.37c.14.9-.11,1.79-.26,2.68-.06.37-.33.58-.11,1.13l-.52-.1-.53,1.09.46.31v.17c-.78.52-.57,2.11-1.77,1.95l-.24,2.71c-.27.05-.33-.25-.56-.33-.87-.3-.53,1.64-.68,1.98-.02.04-.59.6-.66.64-.16.12-.4.02-.58.25-.22.29.09.98-.27,1.61-.12.21-.31.22-.38.33-.17.27-.29.44-.47.7-.17.25-.26.56-.42.82-.99-1.01-2.16-1.93-3.06-3.01-4.1-4.89-3.83-11.88.35-16.62,6.22-7.06,14.04-13.39,20.41-20.4.06-.12.32-.14.36-.17ZM12.01,39.38c.63.05.62-.53,0-.47v.47Z"/>
      <path class="cls-9" d="M71.46,26.3c1.13,1.14,2.37,2.37,3.54,3.54l-.12.71c.24.02.51.03.59-.24.18.18.42.42.59.59-.82.06-.51.39-.82.77-.11.13-.35.18-.42.29-.18.28.15.64.05.81-.02.03-.24.1-.34.19-.62.59-.8.79-.35,1.65-.1.24-.59.21-.68.33s-.23.99-.27,1.03c-.06.06-.43-.08-.64.12-.08.08-.55,1.14-.54,1.23.45.01.13,1.16-.07,1.23-.15.05-.35,0-.52.02-.02.17.09.34.08.51-.03.54-.36,1.17-.41,1.58-.03.25.19.5.04.74-.21.33-1.2.22-.89,1.18-.31.06-.18-.07-.29-.24-.54.04-.42.85-.56,1.04-.06.09-.36.08-.5.27s-.17.68-.32.98c-.17.35-.67.64-.75.78-.11.21-.05.55-.17.75-.1.17-.42.14-.47.21-.08.11.06.47-.07.69-.09.15-.88.6-1.01.79-.18.27-.6,1.64-.84,1.78-.18.1-.6-.08-.75.14l-.08,1.04c-.28.12-.9.42-1.09.62-.24.26-.44.98-.77,1.29-.08.08-.22.22-.24.24-.29.2-.2-.14-.59.47-.19.3-.4.9-.5,1.03-.08.11-1.3.75-1.5.92-.15.13-2.16,2.7-2.27,2.92-.15.29-.28.99-.39,1.14-.05.07-.79.37-1.12.77-.41.48-.37.43-.82.83-.92.84-1.5,2-2.54,3-.61.58-.71.74-1.24,1.36-.8.93-2.33,1.94-3.36,2.65-.74.51-1.17.87-1.84,1.46-1,.87-2.7,1.75-4,2.14-.27.08-.67,0-.81.08-.41.23-1.17,1.19-1.75,1.49-.53.27-1.32.37-1.84.64-.62.31-1.09,1.02-1.68,1.39-.25.15-.54.13-.77.29-.17.13-.24.4-.35.47-.22.13-.61,0-.99.19-.22.11-1.62,1.17-1.73,1.33-.23.32.08.88-.46.9-.73-.72-1.42-1.54-2.12-2.24.53-.1.39-.53.64-.84.46-.58,1.46-.97,2.06-1.35,1.28-.8,2.72-1.58,3.95-2.42.72-.49,1.99-1.86,2.67-2.17.45-.2,1.2-.17,1.81-.55.54-.34.66-.95,1.49-.86.41-1.25,1.05-.28,1.57-.43l.57-.8c.6.26,1.3-.21,1.71-.64.18-.19.21-.53.57-.79s.78-.29,1.11-.54c.38-.28.48-.74.77-1,.27-.24,1.05-.58,1.32-.86.54-.54.64-1.25,1.15-1.86.36-.43,1.07-.81,1.37-1.11.23-.23.45-.84.76-1.13.12-.11.38-.1.47-.23.41-.57.61-1.28,1.24-2.06.78-.98,1.73-1.9,2.53-2.89.3-.36.42-1.21.56-1.38.07-.08.31-.11.44-.21.66-.56.36-.57.51-1.27.16-.77.56-.48.77-.71.3-.31.79-1.5,1.03-1.85.09-.13.38-.13.54-.29.23-.23.17-.61.34-.84.12-.16,1.11-.92,1.17-1.02.09-.14-.26-1,.25-1.58.34-.39,1.06.12,1.33-.55.14-.35.03-.65.12-.95.05-.18.39-1.05.47-1.18.14-.24.43-.28.57-.49.22-.33.47-1.37.71-1.77.11-.18.89-1.02.91-1.09.14-.43-.09-.82-.08-1.16,0-.24.17-.42.2-.62.03-.22-.13-.48-.05-.62.14-.25.75-.25,1.01-.24.07-.25-.15-.55-.12-.75,0-.07.26-.06.33-.39.27-1.32-.58-2.86,1.32-3.11-.24-.82.38-1.67,1.04-2.08.44-1.01.46-2.13.61-3.22Z"/>
      <path class="cls-3" d="M81.13,38.09l-.09.07.09.75h.23c.03.18-.04.77,0,.83v.35s.24,0,.24,0c0,.08,0,.16,0,.24-.18.02-.18.34,0,.35,0,.35,0,.71,0,1.06-.2.19-.2.76,0,.94,0,.08,0,.16,0,.24h-.24c-.09.29.12.33.12.35,0,.13-.1.39-.12.59-.26.23-.28.71-.35,1.06-.08.4-.13.78-.24,1.18h-.24s0,.24,0,.24c-.02.02.01.17,0,.24h-.23s0,.24,0,.24c-.01.01-.07.25-.12.35h-.23s0,.24,0,.24c-.04.04-.33.72-.47.94-.23-.04-.27,0-.24.24-.08.12-.13.22-.24.35-.41,0-.36.3-.47.47-.26.41-.47.65-.94.94-.18.11-.45.23-.65.35-.47-.3.15-.9,0-1.18-.17-.32-1.37-1.05-1.25-.12l.47-.12v.35c-.68-.18-1.25.49-1.98.49l-.21.94c-.5.26-1.89.02-2.21.33-.23.22.08.79-.6.81-.14,0-.3-.11-.45-.08-.23.05-.91.91-1.49.75l-.55,1.11c-.24.08-.52-.31-.9-.21-.56.14-1.83,1.03-2.33,1.39.11-.81-.27-.81-.77-1.18-.11-.08-.14-.29-.2-.33-.37-.22-1.61.29-1.91.55-.13.12,0,.48-.25.36-.1-.05-.26-.32-.28-.44-.07-.36.39-.85-.25-.74.39-.62.3-.27.59-.47v.23s.3-.12.3-.12l.05-.29-.11-.07c.33-.31.53-1.03.77-1.29.19-.2.8-.5,1.09-.62l.08-1.04c.15-.22.57-.04.75-.14.25-.14.66-1.51.84-1.78.13-.19.92-.64,1.01-.79.13-.23,0-.58.07-.69.05-.07.36-.04.47-.21.12-.2.06-.54.17-.75.07-.14.58-.43.75-.78.14-.3.17-.78.32-.98s.44-.18.5-.27c.13-.19.02-1,.56-1.04.12.17-.01.3.29.24-.31-.96.68-.84.89-1.18.15-.24-.07-.49-.04-.74.05-.41.37-1.04.41-1.58.01-.17-.09-.34-.08-.51.16-.01.36.03.52-.02.2-.07.51-1.21.07-1.23-.01-.09.45-1.16.54-1.23.22-.21.58-.06.64-.12.04-.04.18-.91.27-1.03s.58-.09.68-.33c-.44-.86-.27-1.06.35-1.65.1-.09.32-.16.34-.19.1-.17-.23-.53-.05-.81.07-.11.31-.16.42-.29.31-.38,0-.71.82-.77,2.39,2.35,4.17,3.73,5.07,7.19Z"/>
      <path class="cls-11" d="M42.56.13c-.64.57-1.51-.02-1.74,1.03-.05.24.27.62-.26.62l-.29-.47c-.57.79-1.16,1.47-1.48,2.42.61.7-.35.77-.51,1.15-.2.48.08.79.02,1.07-.05.2-.6.64-.66.87-.09.34.05.69-.11,1.07-.12.28-.46.38-.65.65-.29.42-.38,1.25-.67,1.66-.12.17-.37.17-.51.47-.22.48-.18,1.27-.46,1.78-.18.32-1.01.88-1.04.98-.04.16.11.32.11.45,0,.05-.21.07-.3.3-.29.69-.28,2.06-.56,2.87s-.46.81-.7,1.89c-.09.39-.62.71-.45,1.26h-.59c-.16.56.61.53.7.78l-.23,1.4.36.06c.02.29-.29.58-.22.86.1.41,1.36,1.27-.14.91.03.88.66.58,1.12.61.61.05,1.21.16,1.83.09-3.25,3.13-6.41,6.43-9.55,9.67-.44-.23-.67.1-1,.13-.89.07-.39-.6-.42-1.01-.01-.22-.22-.39-.23-.59,0-.26.29-.5.33-.74.04-.26-.14-.51-.09-.67s.32-.14.35-.27c.08-.31-.08-.93.11-1.26.13-.22.14.24.39-.57s-.02-.52,0-.96c.01-.37.52-.7.21-1.26-.12-.11-.78.36-.71-.06.07-.45.64-.43.77-.65.19-.3-.09-.62-.06-.88s.33-.33.35-.58c.02-.31-.27-.83-.24-1.19.37-.44.02-2.15.27-2.39.16-.15.49-.03.6-.29.24-.55-.66-.5-.22-1.5.17-.39.38-.36.57-.62.42-.6.35-1.44.69-2.01.36-.61,1.01-.59,1.01-1.69,0-.23-.2-.34-.16-.63.06-.42.51-.61.61-.93.08-.28,0-.57.11-.83s.57-.42.62-.5c.26-.45.28-1.58.4-2.01.03-.1,1.08-1.4,1.27-1.64.12-.16.4-.19.46-.41.1-.33-.22-.48-.2-.67.02-.24.37-.43.43-.63.07-.26-.04-.71.04-.84.05-.07.57-.11.67-.45.08-.27-.01-.61.04-.91.05-.31.16-.54.25-.82.06-.21.26-.36-.14-.32.08-.08.15-.16.24-.24.41.3.66-.09.83-.41.13-.23.25-.33-.12-.3,2.69-2.43,5.32-3.33,8.96-2.83Z"/>
      <path class="cls-5" d="M68.04,22.88c1.11,1.14,2.31,2.3,3.42,3.42-.15,1.08-.17,2.21-.61,3.22-.66.41-1.28,1.26-1.04,2.08-1.9.24-1.05,1.79-1.32,3.11-.07.33-.33.32-.33.39-.02.2.19.5.12.75-.27-.02-.87-.01-1.01.24-.08.13.08.4.05.62-.03.2-.19.38-.2.62-.01.34.21.73.08,1.16-.02.07-.79.91-.91,1.09-.25.39-.49,1.43-.71,1.77-.14.2-.44.25-.57.49-.08.13-.42,1-.47,1.18-.09.29.03.6-.12.95-.28.68-.99.17-1.33.55-.51.58-.16,1.43-.25,1.58-.06.09-1.05.86-1.17,1.02-.17.23-.11.61-.34.84-.16.16-.44.16-.54.29-.25.35-.74,1.54-1.03,1.85-.21.22-.61-.06-.77.71-.15.7.16.7-.51,1.27-.12.11-.37.13-.44.21-.14.17-.27,1.02-.56,1.38-.8.99-1.75,1.91-2.53,2.89-.63.79-.82,1.5-1.24,2.06-.1.13-.36.12-.47.23-.31.29-.53.9-.76,1.13-.3.3-1.01.68-1.37,1.11-.51.6-.61,1.31-1.15,1.86-.27.27-1.05.62-1.32.86-.29.26-.39.72-.77,1-.34.25-.77.28-1.11.54s-.38.6-.57.79c-.41.43-1.12.9-1.71.64l-.57.8c-.51.15-1.15-.82-1.57.43-.84-.09-.95.53-1.49.86-.61.38-1.36.35-1.81.55-.68.3-1.95,1.67-2.67,2.17-1.23.84-2.67,1.62-3.95,2.42-.61.38-1.6.78-2.06,1.35-.24.31-.11.74-.64.84-.05-.05-.27-.15-.47-.35.25-.5.4-1.69.72-2.05.24-.28.56-.16.81-.37.23-.19.39-.9.62-1.08s1.66-.65,1.94-.89c.1-.08.13-.38.32-.56.26-.24.83-.41,1.18-.71.27-.23.4-.52.68-.74.16-.12.47-.17.53-.23.1-.11.04-.4.18-.53.07-.07.55-.24.8-.44.43-.35,1.08-1.32,1.42-1.53.37-.22,1.11-.09,1.45-.2.17-.06.2-.3.32-.39,1.19-.88,2.69-1.64,4.12-2.13.29-.1.6-.01.92-.14.94-.39,1.72-2.05,2.16-2.32.28-.18,1.11-.39,1.41-.71.25-.27.39-1.25.53-1.47.07-.11.28-.13.35-.24.38-.59.22-.82.86-1.32.12-.09.11-.46.26-.63.14-.16.38-.15.53-.29.25-.25,1.91-2.27,2.01-2.47.11-.23.02-.47.23-.71s.5-.17.72-.34c.44-.34.13-.68.2-.97.19-.75,1.47-.87,1.73-2.06.17-.78-.14-.46.43-1.11.06-.07.04-.27.09-.31.08-.07.31-.02.44-.08.19-.1.73-1.21.24-1.36.02-.09.05-.17.12-.24.28-.08.17.27.4.24.87-.1,1-.79.9-1.54.22-.24.32-.38.47-.59.22.02.45.03.59-.18l-.24-.29c.13-.23.24-.57.35-.83h.24c.01-.08-.01-.16,0-.24.05-.27.08-.55.12-.83.07-.02.19-.12.24-.12s.15.21.35.07c.36-.25.61-1.98.7-2.5.05-.27-.03-.57.01-.81.05-.26.31-.36.34-.49.04-.19-.24-.37-.2-.56.03-.13.28-.23.32-.4.07-.24-.14-.5-.1-.67.08-.28.58-.13.82-.25.42-.2.41-1.58.56-2.03.17-.51.55-.54.76-.89.3-.51.09-1.2.46-1.66.2-.25.48-.25.63-.43.55-.7.58-2.03,1.06-2.95.07-.14.04-.37.09-.44.07-.08.48-.06.55-.16.04-.05.24-1.13.24-1.23.03-.81-.44-1.2.95-1.11l-.59-.65c1.45-.68-.26-.46-.22-1.18.02-.32.35-.61.41-.88s-.28-.68.29-.71Z"/>
      <path class="cls-10" d="M48.69,3.43c-.22-.01-.6.17-.94,0-.33.51.15.78.11,1.22,0,.09-.31.88-.36.95-.15.2-.39.16-.52.31-.19.22-.02.57-.65.47,0,.32-.06,1.1-.23,1.33-.1.14-.46.09-.66.31-.22.25-.11.61-.24.82-.18.3-.78.05-.54,1.06-1,.02-1.27,1.65-1.31,2.47h-.33c.2.81-.42.77-.63,1.22-.17.37-.11.93-.34,1.31s-1.03.65-.81,1.37c.21.02.49-.31.47.05-.05.94-.72.69-.8,1.21-.04.24.1.44.08.65s-.25.56-.3.88c-.06.39-.09,1.24.15,1.56.26.34,1.06.12.64,1.18-2.94-.4-4.49,1.25-6.37,3.06-.62.07-1.22-.05-1.83-.09-.46-.03-1.09.26-1.12-.61,1.49.36.24-.5.14-.91-.07-.28.23-.57.22-.86l-.36-.06.23-1.4c-.09-.25-.86-.23-.7-.78h.59c-.17-.55.36-.87.45-1.26.25-1.08.43-1.1.7-1.89s.27-2.18.56-2.87c.09-.23.3-.25.3-.3,0-.12-.15-.28-.11-.45.03-.1.86-.66,1.04-.98.28-.51.24-1.3.46-1.78.14-.3.39-.3.51-.47.29-.41.38-1.24.67-1.66.19-.27.53-.36.65-.65.16-.38.02-.73.11-1.07.07-.24.62-.67.66-.87.06-.27-.22-.59-.02-1.07.16-.37,1.12-.45.51-1.15.32-.95.9-1.63,1.48-2.42l.29.47c.54,0,.21-.38.26-.62.23-1.05,1.1-.46,1.74-1.03,2.28.31,4.08,1.19,5.78,2.77.17.15.33.29.35.53Z"/>
      <path class="cls-14" d="M77.59,50.35c-.04.44-.51.55-.77.82s-.57.94-1,.95c.1-.15.57-.83.47-.94l-.81.49v.28c.07.14.18.18.34.18-.11.17-.16.4-.35.53-4.89,4.85-9.75,9.78-14.62,14.62-1.03,1.02-2.05,2.12-3.19,3,.28-.78.17-.37.57-.9.21-.27.2-.71.31-.87.1-.13.32-.1.41-.18.52-.41-.62-1.44-.82-1.24l.23.94c-.64-.08-1-.31-1.27.44-.05.15.01.45-.03.49-.03.03-.26,0-.37.04-1.23.56-1.12.57-2.04,1.38-.52.46-1.07.33-1.48.53-.17.08-.24.39-.41.54-1.35,1.15-3.44,2.35-4.88,3.37-.21.15-1.01.61-1.05.66-.08.1.03.38-.14.51-.1.08-.64.15-.94.36-.83.55-1.64,1.49-2.58,2.05s-2.02.71-2.96,1.37c-.3.21-.62.71-1.08.93-.26.12-.8.1-1.02.33-.11.12-.07.35-.22.45-.1.06-.89.27-1.07.31-.17.04-.37-.1-.59-.01-.31.11-.1.58-.5.51-.2-.2-.39-.39-.59-.59-.05-.34.32-.22.54-.46.19-.21.17-.49.28-.63.3-.39.98-.87,1.35-1.15s1.54-1.19,1.92-1.27c.17-.03.36.13.5.04.11-.06.21-.4.41-.54.35-.25.92-.21,1.27-.46.2-.14.31-.49.64-.69.75-.48,1.64-.41,2.29-1.13.13-.14.13-.42.29-.55.17-.15.36.01.54-.04.35-.09,1.12-1.06,1.47-1.36.19-.16.45-.23.66-.41.15-.12.23-.41.35-.48.21-.12.5,0,.71-.12.17-.1.22-.6.47-.71.26-.12.66.01.84-.11s.05-.49.16-.66c.08-.11.38-.13.54-.28.14-.14.15-.4.26-.51.25-.25,1.13-.7,1.44-.97.38-.33.53-.8.82-1.06.55-.5.91-.46,1.6-1.24.6-.68,1.1-1.2,1.55-2.1.15-.3.16-.76.33-.97.17-.23.59-.25.84-.46.35-.3.33-.81.49-.98.9-.91,2.09-1.65,2.99-2.61.14-.15.14-.42.24-.49.16-.11.51-.05.61-.13s.41-.96.5-1.15c.26,0,.35-.16.47-.35.04-.07.08-.16.12-.24.29.05.38-.29.47-.35.3-.2.57-.43.83-.59.42-.27.11-.14.24-.35.04-.07,1.09-.79,1.3-.94.5-.37,1.77-1.25,2.33-1.39.38-.1.66.29.9.21l.55-1.11c.58.15,1.27-.7,1.49-.75.15-.03.31.08.45.08.68-.03.37-.6.6-.81.33-.31,1.72-.07,2.21-.33l.21-.94c.73,0,1.31-.68,1.98-.49v-.35s-.47.12-.47.12c-.13-.93,1.08-.2,1.25.12.14.28-.48.88,0,1.18.19-.12.47-.24.65-.35ZM59.31,66.38c-1.39.09.09,1.5.53,1.41.23-.04.2-.62.18-.82-.46.05-.65-.14-.7-.59Z"/>
      <path class="cls-13" d="M54.59,9.33c1.81,1.79,3.85,3.51,5.6,5.42.13.15.3.24.29.47-.19-.06-.89-.1-.93-.14-.03-.03-.09-.79-.6-.27.59.67-.3,1.48.59,1.88v.17c-.61.05-.24.73-.37,1.1-.06.18-.33.2-.4.31-.15.24.06.64-.24.83l-.65-.24c.25.77-.27,1.16-.42,1.64-.06.2-.03.68-.06.71-.03.03-.66-.04-.8.45-.1.36.2.74.08,1.13-.08.26-.63.38-.76.91-.09.38.15.68-.05,1.06h-.65s.05.82.05.82c-.82.06-.41.59-.46,1-.05.32-.27.61-.24.96.02.26.23.41.24.59.01.22-.23.53-.23.83-.02.71-.03.83-.12,1.53-.1.85.19,1.77,0,2.66-2.47-2.47-5.12-4.97-7.67-7.43h.71c.12-.44-.39-1.14-.36-1.47.03-.25.3-.33.34-.5.04-.15-.09-.34-.07-.53.05-.53.36-2.92.56-3.22.29-.44,1.07-.99,1.24-1.59.14-.46-.06-1.56.1-1.78.1-.14.47-.07.67-.28.24-.26.2-.93.41-1.24.18-.27.27-.38.47-.7.09-.14.44-.1.29-.59l.54.02c.19-.14.12-.43.2-.57.06-.09.34-.15.49-.39.17-.28.2-.62.19-.93l.59.12c-.1-.37.42-.59.46-.78s-.31-.53-.33-.81c-.06-.91.52-1.07,1.29-1.11Z"/>
      <path class="cls-15" d="M54.47,33.14c.19-.88-.11-1.81,0-2.66.08-.69.1-.82.12-1.53,0-.3.25-.61.23-.83-.01-.17-.22-.32-.24-.59-.03-.35.2-.64.24-.96.06-.4-.36-.94.46-1l-.05-.82h.65c.2-.37-.04-.68.05-1.06.13-.53.68-.65.76-.91.12-.39-.18-.77-.08-1.13.14-.49.77-.41.8-.45.03-.03,0-.51.06-.71.15-.48.67-.87.42-1.64l.65.24c.3-.19.09-.59.24-.83.07-.11.33-.13.4-.31.13-.38-.24-1.05.37-1.1v-.17c-.89-.41,0-1.22-.59-1.88.52-.52.57.24.6.27.04.04.74.08.93.14.8.25,4.11,4.09,4.95,4.95-.98.37.18.59.3.82.08.31-.21.56-.18.88.02.3.33.47.33.69s-.29.71-.26,1.03l-.54.11v.35s.47,0,.47,0c.15.55-.48.76-.94.83-.08.23.16.56.1.75-.04.15-.31.14-.35.27-.04.17.05.7,0,.74-.43.18-.78-.45-1.06-.06.58.68.24.63.12,1.18-.05.21.05.48-.02.68-.04.13-.96,1.02-1.07,1.28-.13.31-.03.75-.14.92-.09.13-.44.08-.52.3-.15.41.13.86.1,1.16-.03.29-.36.37-.45.62-.06.18-.14.81-.16,1.03-.03.42.4.71-.33.78-.05.35.03.71-.07,1.06-.07.25-.57.5-.65,1.12-.06.43.13.75.11,1.05-.06.96-.14.87,0,1.95l-1.24-1.89c-1.63-1.43-3.04-3.21-4.54-4.71Z"/>
      <path class="cls-8" d="M61.79,53.41c.65-.11.19.38.25.74.02.12.17.39.28.44.25.12.12-.24.25-.36.3-.26,1.54-.77,1.91-.55.05.03.09.25.2.33.5.37.88.37.77,1.18-.21.15-1.25.87-1.3.94h-.23s0,.35,0,.35c-.25.16-.52.39-.83.59l-.35-.24c-.05.04-.08.49-.12.59-.03.08-.07.16-.12.24-.43-.05-.36.1-.47.35-.08.2-.4,1.07-.5,1.15s-.44.02-.61.13c-.1.07-.1.34-.24.49-.9.96-2.09,1.7-2.99,2.61-.17.17-.14.69-.49.98-.25.21-.67.22-.84.46-.16.22-.17.67-.33.97-.45.9-.95,1.42-1.55,2.1-.69.78-1.04.74-1.6,1.24-.29.26-.44.74-.82,1.06-.32.27-1.2.72-1.44.97-.11.11-.12.37-.26.51-.16.16-.47.17-.54.28-.11.17,0,.54-.16.66s-.57-.01-.84.11c-.25.12-.3.61-.47.71-.21.12-.5,0-.71.12-.11.07-.2.35-.35.48-.21.17-.47.24-.66.41-.35.3-1.13,1.27-1.47,1.36-.18.05-.37-.11-.54.04-.15.13-.16.41-.29.55-.65.72-1.53.66-2.29,1.13-.33.21-.44.55-.64.69-.35.25-.93.21-1.27.46-.2.14-.3.48-.41.54-.14.08-.33-.08-.5-.04-.38.08-1.54.99-1.92,1.27s-1.06.75-1.35,1.15c-.11.14-.09.42-.28.63-.22.24-.59.12-.54.46-1.1-1.1-2.2-2.21-3.3-3.3.55-.01.24-.57.46-.9.11-.16,1.51-1.22,1.73-1.33.38-.18.77-.06.99-.19.11-.07.18-.35.35-.47.23-.17.52-.14.77-.29.59-.36,1.06-1.08,1.68-1.39.52-.26,1.31-.37,1.84-.64.59-.3,1.35-1.26,1.75-1.49.13-.08.53,0,.81-.08,1.3-.39,3-1.26,4-2.14.67-.59,1.1-.95,1.84-1.46,1.03-.71,2.56-1.72,3.36-2.65.53-.62.63-.77,1.24-1.36,1.04-1,1.62-2.16,2.54-3,.44-.41.41-.36.82-.83.33-.39,1.07-.69,1.12-.77.11-.16.24-.85.39-1.14.11-.22,2.12-2.79,2.27-2.92.2-.17,1.42-.81,1.5-.92.09-.14.31-.73.5-1.03ZM64.5,54.59h-.59c0,.7.68.84.59,0Z"/>
      <path class="cls-7" d="M48.69,3.43c.26.01.32.15.35.35.02.1-.03.33,0,.35.04.04.28-.03.35,0,1.05.48,4.19,4.2,5.19,5.19-.77.05-1.36.2-1.29,1.11.02.29.37.62.33.81s-.56.42-.46.78l-.59-.12c.01.32-.02.66-.19.93-.15.24-.43.3-.49.39-.09.14,0,.44-.2.57l-.54-.02c.15.49-.2.45-.29.59-.2.33-.3.43-.47.7-.2.31-.17.99-.41,1.24-.19.21-.56.13-.67.28-.16.22.03,1.33-.1,1.78-.18.59-.95,1.14-1.24,1.59-.2.3-.51,2.68-.56,3.22-.02.19.1.38.07.53-.04.16-.31.25-.34.5-.03.33.48,1.03.36,1.47h-.71c-1-.97-2.69-2.22-3.54-3.18-.09-.1.21-.12-.24-.24s-1.18-.42-1.53-.47c.41-1.06-.38-.85-.64-1.18-.25-.32-.21-1.16-.15-1.56.05-.32.27-.67.3-.88s-.12-.41-.08-.65c.08-.52.75-.28.8-1.21.02-.36-.26-.03-.47-.05-.22-.72.58-.98.81-1.37s.17-.94.34-1.31c.21-.45.83-.4.63-1.2h.33c.03-.83.31-2.46,1.31-2.49-.24-1.01.36-.76.54-1.06.13-.21.01-.57.24-.82.2-.23.56-.17.66-.31.17-.24.22-1.02.23-1.33.62.1.46-.25.65-.47.12-.15.37-.11.52-.31.05-.07.36-.86.36-.95.04-.44-.44-.71-.11-1.22.34.17.72-.02.94,0Z"/>
      <path class="cls-4" d="M57.42,47.4c.49.14-.05,1.26-.24,1.36-.13.07-.36.02-.44.08-.05.05-.03.24-.09.31-.57.65-.26.33-.43,1.11-.26,1.19-1.54,1.31-1.73,2.06-.07.29.24.63-.2.97-.22.17-.51.11-.72.34s-.12.48-.23.71c-.09.2-1.76,2.22-2.01,2.47-.15.15-.39.14-.53.29-.15.17-.14.54-.26.63-.64.5-.48.72-.86,1.32-.07.12-.28.14-.35.24-.14.22-.28,1.2-.53,1.47-.3.32-1.13.53-1.41.71-.44.28-1.22,1.93-2.16,2.32-.32.13-.62.04-.92.14-1.42.49-2.93,1.25-4.12,2.13-.12.09-.15.33-.32.39-.34.11-1.08-.02-1.45.2-.34.2-.99,1.18-1.42,1.53-.24.2-.73.37-.8.44-.14.13-.08.42-.18.53-.06.06-.37.11-.53.23-.27.21-.4.51-.68.74-.35.3-.92.46-1.18.71-.19.18-.23.48-.32.56-.29.24-1.71.7-1.94.89s-.39.89-.62,1.08c-.25.21-.57.09-.81.37-.31.36-.47,1.56-.72,2.05-1.2-1.2-2.44-2.44-3.66-3.65l.23-1.01.7-.06c.06-1.11,1.57-1.35,2.41-1.9.15-.1,1.08-.77,1.11-.83.09-.15-.03-.43.13-.63.12-.15.41-.15.55-.28.21-.19.31-.53.59-.71,1.28-.86,2.76-1.65,4.02-2.59.18-.14.25-.4.37-.48.21-.13.6-.1.78-.22.17-.11.11-.39.27-.49.19-.12.52-.06.74-.17.21-.1.3-.41.56-.5.54-.19,1.46.13,1.45-.62.4.1,1,.08,1.42.12.02,0,.26.23.47.12v-.24c1.13-.09,2.2-.64,3.07-1.35,4.51-3.72,8.45-9.16,12.97-12.91Z"/>
      <path class="cls-11" d="M21.1,43.51c.25.42.17.55.32.92.49,1.23,4.38,4.83,5.58,6.04-.4,0-.33.43-.47.53-.16.12-.48.05-.71.24-.25.21-.52,1.07-.76,1.25-.28.2-.66,0-.91.27-.26.33.1.95-.39,1.26-.29.17-.6.05-.78.16-.11.07-.14.43-.34.6-.27.25-.97.39-1.24.76-.15.21-.12.63-.3.76s-.63.11-.94.36c-.26.21-.34.63-.47.7-.19.11-.49,0-.71.11-.15.07-.48.69-.76.89-.27.19-.58.18-.83.46-.16.18-.34.76-.43.81-.15.08-.39-.03-.63.13-.64.44-.54,1.72-.76,2.37-1.4-1.4-2.93-2.82-4.36-4.24.68.12.43-.93.48-1.34.04-.3.17-.59.23-.89l.82.06.36-1.12c1.64.39.86-2.21,2.52-1.56l.13-.1c.11-.18,0-.45.07-.64.05-.16.31-.15.34-.28.04-.18-.05-.4.05-.63.13-.27.7-.29.75-.37.12-.19-.08-.88.61-.93l-.02-.22-.22-.07.02-.22c.15-.44.84-.61,1.03-.86s.22-.94.26-.98c.08-.07.54.07.64-.37l.4.12c-.06-.38.42-.91.44-1.13.02-.17-.14-.37-.08-.56.05-.16.33-.15.36-.27.04-.18-.13-.41-.12-.58,0-.2.29-.35.22-.57-.05-.16-.52-.11-.34-.58.1-.25.69-.26.93-.31ZM20.74,46.1c.12-.12-.23-.47-.35-.35s.23.47.35.35Z"/>
      <path class="cls-12" d="M35.72,82.29c.4.07.19-.4.5-.51.22-.08.42.05.59.01.19-.04.97-.25,1.07-.31.16-.1.11-.33.22-.45.22-.23.76-.21,1.02-.33.46-.21.78-.72,1.08-.93.95-.65,2-.79,2.96-1.37s1.75-1.5,2.58-2.05c.3-.2.84-.28.94-.36.17-.13.06-.41.14-.51.04-.05.84-.51,1.05-.66,1.44-1.01,3.54-2.21,4.88-3.37.17-.14.24-.45.41-.54.41-.2.95-.07,1.48-.53.92-.81.81-.83,2.04-1.38.11-.05.33,0,.37-.04.04-.05-.02-.34.03-.49.27-.75.64-.52,1.27-.44l-.23-.94c.21-.21,1.35.83.82,1.24-.09.07-.31.05-.41.18-.12.15-.1.59-.31.87-.4.53-.29.12-.57.9-.02.05-.1.09-.12.12h-.24s0,.24,0,.24c-.05.05-.07.06-.12.12h-.24s0,.24,0,.24c-.26.22-.37.32-.59.59-.32-.04-.61.24-.76.48-.08.13-.04.32-.06.35-.18.26-.44.53-.71.71-1.18.79-2.6,2.67-3.66,3.77-2.82,2.95-5.74,5.82-8.61,8.72-.24,0-.35.12-.35.35-.43.43-.9.81-1.3,1.18h-.24c-1.75-1.5-3.35-3.23-4.95-4.83Z"/>
      <path class="cls-13" d="M34.78,58.25c1.35,1.28,2.85,2.96,4.72,3.42,0,.74-.91.43-1.45.62-.26.09-.36.4-.56.5-.22.11-.56.05-.74.17-.16.1-.11.39-.27.49-.19.12-.58.09-.78.22-.13.08-.19.35-.37.48-1.26.94-2.73,1.73-4.02,2.59-.27.18-.38.52-.59.71-.14.13-.43.13-.55.28-.17.21-.05.48-.13.63-.03.06-.96.73-1.11.83-.84.54-2.35.78-2.41,1.9l-.7.06-.23,1.01c-1.08-1.08-2.22-2.22-3.3-3.3.23-.2.38-.84.12-1.01-.14-.1-.79.02-.71-.35.05-.24.63-.18.83-.18-.15-.87.4-.72.82-1.01.29-.2.95-.9,1.3-1.05.23-.1.56,0,.71-.11.11-.08.09-.35.23-.48.11-.1.36-.09.51-.2.25-.18.89-.8,1.02-.87.29-.13.71,0,.98-.17.16-.1.42-.88.58-1.04.34-.34,1.29-.78,1.68-1.21.48-.52.6-1.26,1.41-1.65.3-.15.59-.11.83-.23.72-.35,1.37-.89,2.18-1.07Z"/>
      <path class="cls-10" d="M31.36,54.83c-.14.77-1.09.27-1.49.58l-.43,1.05c-.58.13-1.39.55-1.9.87-.33.2-.41.56-.6.7s-.42.09-.6.22c-.43.31-.76,1.2-1.05,1.42s-.67.16-.95.35c-.3.2-.4.78-.64.89s-.62.04-.93.14c-.06.02-.99.51-1.05.54-.08.05-.42.71-.75.96-.23.18-.81.56-1.06.71-.22.13-.92.3-1,.42-.06.09.27,1.24-.52,1.3-.94-.94-1.92-1.91-2.83-2.83.21-.65.12-1.92.76-2.37.24-.16.48-.05.63-.13.09-.05.28-.63.43-.81.25-.29.57-.28.83-.46.29-.2.61-.82.76-.89.22-.1.52,0,.71-.11.13-.08.22-.5.47-.7.31-.25.75-.23.94-.36s.16-.55.3-.76c.27-.38.97-.52,1.24-.76.2-.18.23-.54.34-.6.18-.12.49.01.78-.16.5-.3.13-.93.39-1.26.25-.27.63-.08.91-.27.24-.17.51-1.04.76-1.25.23-.19.55-.12.71-.24.14-.1.07-.52.47-.53,1.44,1.46,2.91,2.92,4.36,4.36Z"/>
      <path class="cls-7" d="M34.78,58.25c-.81.17-1.46.71-2.18,1.07-.24.12-.53.08-.83.23-.81.39-.93,1.13-1.41,1.65-.39.43-1.34.87-1.68,1.21-.16.16-.42.93-.58,1.04-.27.17-.69.04-.98.17-.14.06-.77.69-1.02.87-.15.1-.4.1-.51.2-.14.12-.12.4-.23.48-.16.11-.48.01-.71.11-.36.16-1.01.85-1.3,1.05-.42.29-.97.14-.82,1.01-.2,0-.78-.06-.83.18-.08.36.57.25.71.35.25.17.11.81-.12,1.01-.93-.93-2.25-1.75-2.95-2.95l.35-.18-.05-.3-.65-.11v.24s-.41-.24-.41-.24c-.1-.08-.12-.29-.18-.35.79-.06.46-1.21.52-1.3.08-.12.78-.29,1-.42.25-.15.83-.53,1.06-.71.33-.25.67-.91.75-.96.06-.04.99-.53,1.05-.54.31-.09.69-.02.93-.14s.34-.69.64-.89c.28-.19.67-.13.95-.35s.62-1.11,1.05-1.42c.18-.13.42-.09.6-.22s.27-.49.6-.7c.52-.31,1.32-.73,1.9-.87l.43-1.05c.4-.3,1.35.19,1.49-.58,1.14,1.13,2.26,2.32,3.42,3.42Z"/>
      <path class="cls-4" d="M65.44,20.17c.87.89,1.73,1.83,2.59,2.71-.56.03-.22.43-.29.71s-.39.56-.41.88c-.04.72,1.68.5.22,1.18l.59.65c-1.4-.09-.93.3-.95,1.11,0,.1-.21,1.18-.24,1.23-.07.1-.48.08-.55.16-.05.06-.02.3-.09.44-.48.92-.51,2.26-1.06,2.95-.15.19-.43.18-.63.43-.37.46-.16,1.15-.46,1.66-.21.35-.59.38-.76.89-.15.45-.14,1.84-.56,2.03-.24.11-.74-.04-.82.25-.05.17.17.43.1.67-.05.16-.3.27-.32.4-.04.18.24.37.2.56-.03.13-.29.22-.34.49-.05.25.03.54-.01.81-.09.52-.34,2.25-.7,2.5-.2.14-.31-.06-.35-.07l-.12-.35c0-.12,0-.24,0-.35h.24c.05-.07,0-1.5-.35-1.3-.04-.36-.07-.71-.12-1.06-.14-1.08-.07-.99,0-1.95.02-.3-.17-.62-.11-1.05.08-.61.58-.87.65-1.12.1-.35.01-.71.07-1.06.73-.07.3-.37.33-.78.01-.22.09-.85.16-1.03.09-.25.42-.33.45-.62.03-.3-.25-.75-.1-1.16.08-.23.43-.17.52-.3.11-.17.01-.61.14-.92.11-.27,1.03-1.16,1.07-1.28.07-.2-.02-.47.02-.68.12-.55.46-.5-.12-1.18.28-.39.63.24,1.06.06.05-.05-.05-.57,0-.74.03-.13.3-.12.35-.27.06-.19-.18-.52-.1-.75.46-.07,1.09-.28.94-.83h-.47s0-.35,0-.35l.54-.11c-.03-.31.26-.8.26-1.03s-.31-.39-.33-.69c-.02-.32.26-.57.18-.88-.12-.23-1.29-.45-.3-.82Z"/>
      <path class="cls-14" d="M54.83,73.1c.03.26-.09.36-.23.54-.69.86-2.11,2.17-2.95,2.94-.15.13-.24.3-.47.29,1.06-1.1,2.48-2.98,3.66-3.77Z"/>
      <path class="cls-6" d="M33.6,2.96c.37-.03.25.07.12.3-.17.32-.42.71-.83.41.24-.23.44-.46.71-.71Z"/>
      <polygon class="cls-10" points="19.33 65.91 18.97 65.55 18.97 65.32 19.63 65.43 19.68 65.73 19.33 65.91"/>
      <path class="cls-14" d="M56.36,71.57c-.2.25-.33.79-.83.83.02-.03-.02-.22.06-.35.16-.24.45-.52.76-.48Z"/>
      <path class="cls-1" d="M25.34,11.21l-.14.69-.57.02c.22-.22.49-.49.71-.71Z"/>
      <path class="cls-3" d="M75.47,30.31c-.08.27-.35.25-.59.24l.12-.71c.16.16.32.32.47.47Z"/>
      <path class="cls-14" d="M81.37,43.86s.1.07.09.16c-.04.24-.32.55-.21.9h-.23c.07-.35.09-.83.35-1.06Z"/>
      <path class="cls-14" d="M81.37,38.91h-.23s-.09-.76-.09-.76l.09-.07c.07.26.19.52.24.83Z"/>
      <path class="cls-14" d="M79.01,48.93c-.1.12-.07.5-.47.47.11-.17.06-.48.47-.47Z"/>
      <path class="cls-10" d="M49.4,4.14c-.07-.03-.32.04-.35,0-.03-.03.02-.26,0-.35.23.01.35.12.35.35Z"/>
      <path class="cls-14" d="M81.6,42.69c-.2-.18-.2-.76,0-.94,0,.31,0,.63,0,.94Z"/>
      <path class="cls-14" d="M42.56,85.59c-.1.1-.26.26-.35.35,0-.23.12-.35.35-.35Z"/>
      <path class="cls-14" d="M81.6,42.92c0,.14,0,.26-.12.35,0-.02-.21-.06-.12-.35h.24Z"/>
      <path class="cls-14" d="M81.37,39.74c.07.1.18-.26.24.35h-.24s0-.35,0-.35Z"/>
      <path class="cls-14" d="M79.48,48.34c-.2.31-.22.22-.24.24-.04-.23,0-.28.24-.24Z"/>
      <path class="cls-14" d="M80.19,47.17c-.2.4-.12.13-.24.24v-.23s.24,0,.24,0Z"/>
      <path class="cls-14" d="M57.19,70.74s.04.16-.02.22c-.06.06-.2,0-.22.02v-.24s.24,0,.24,0Z"/>
      <path class="cls-14" d="M80.54,46.58c-.07.43-.13.15-.24.24v-.23s.24,0,.24,0Z"/>
      <path class="cls-14" d="M80.78,46.1c-.12.44-.13.14-.24.24v-.24s.24,0,.24,0Z"/>
      <path class="cls-14" d="M57.54,70.39c-.18.39-.11.13-.24.24v-.24s.24,0,.24,0Z"/>
      <path class="cls-14" d="M40.91,87.13s.07.25-.06.24h-.18c-.02-.07.02-.22,0-.24h.24Z"/>
      <path class="cls-14" d="M81.6,40.68c-.18-.02-.18-.34,0-.35,0,.12,0,.24,0,.35Z"/>
      <path class="cls-11" d="M20.98,41.51c-.02.39.01.79,0,1.18l-.24-.07v-1.11s.24,0,.24,0Z"/>
      <path class="cls-11" d="M21.1,43.28c-.47.05-.12-.18-.12-.24l.12.24Z"/>
      <path class="cls-6" d="M12.01,39.38v-.47c.62-.06.63.53,0,.47Z"/>
      <path class="cls-8" d="M62.61,52.71l.11.07-.05.29-.3.12v-.23s.15-.16.24-.24Z"/>
      <path class="cls-4" d="M58.84,45.87c.11.75-.02,1.44-.9,1.54-.23.03-.12-.32-.4-.24.42-.42.91-.88,1.3-1.3Z"/>
      <path class="cls-4" d="M59.31,45.28c.08-.11.33-.43.35-.47l.24.29c-.14.2-.36.2-.59.18Z"/>
      <path class="cls-15" d="M60.61,42.8s-.17.1-.24.12c.03-.17.12-.44.12-.47l.12.35Z"/>
      <path class="cls-15" d="M60.25,43.75c-.01.07.01.16,0,.24h-.24c.05-.11-.12-.3.24-.24Z"/>
      <path class="cls-12" d="M59.31,66.38c.05.45.24.64.7.59.03.2.05.78-.18.82-.43.08-1.92-1.32-.53-1.41Z"/>
      <path class="cls-3" d="M75.82,52.12c-.16,0-.27-.04-.35-.18v-.28s.82-.49.82-.49c.1.11-.38.8-.47.94Z"/>
      <path class="cls-3" d="M63.08,57.07c-.09.06-.18.4-.47.35.04-.09.07-.55.12-.59l.35.24Z"/>
      <path class="cls-3" d="M62.49,57.66c-.12.2-.21.35-.47.35.11-.26.04-.4.47-.35Z"/>
      <path class="cls-3" d="M64.15,56.12c-.13.21.19.09-.24.35v-.35s.24,0,.24,0Z"/>
      <path class="cls-3" d="M64.5,54.59c.09.84-.59.7-.59,0h.59Z"/>
      <path class="cls-10" d="M43.03,22.29c.44.12.14.13.24.24-.21.04-.28-.02-.24-.24Z"/>
      <path class="cls-13" d="M41.38,61.66v.24c-.22.11-.45-.12-.47-.12.14-.15.3-.1.47-.12Z"/>
      <path class="cls-6" d="M20.74,46.1c-.12.12-.47-.23-.35-.35s.47.23.35.35Z"/>
      <path class="cls-15" d="M60.37,40.8c.35-.2.41,1.23.35,1.3h-.24c.01-.5-.07-.84-.12-1.3Z"/>
    </g>
  </g>
</svg>